<svg xmlns="http://www.w3.org/2000/svg" width="93" height="73" fill="none"><path fill="#000" d="m64.292 70.956-3.257-24.534 3.377-9.862-3.377-9.741 3.257-24.775H93L88.416 36.44 93 70.956zm6.152-34.396q-1.448 10.944-6.393 19.242-4.826 8.179-12.545 12.748Q43.907 73 34.016 73q-10.012 0-17.732-4.57T4.222 55.682Q0 47.384 0 36.56q0-11.064 4.222-19.242Q8.564 9.02 16.284 4.57 24.004 0 34.016 0q9.891 0 17.49 4.45 7.72 4.45 12.665 12.748 4.946 8.178 6.273 19.362m-42.58 0q0 4.57 1.81 8.058 1.929 3.487 5.307 5.532 3.376 2.044 7.72 2.044 4.463 0 8.564-2.044 4.1-2.044 7.237-5.532 3.136-3.487 4.584-8.058-1.448-4.57-4.584-8.058-3.136-3.607-7.237-5.652-4.102-2.044-8.565-2.044-4.342 0-7.72 2.044-3.376 2.044-5.307 5.653-1.81 3.487-1.81 8.057"/></svg>

